<svg width="1200" height="400" viewBox="0 0 1200 400" fill="none" xmlns="http://www.w3.org/2000/svg">
<g clip-path="url(#clip0_42_93)">
<path fill-rule="evenodd" clip-rule="evenodd" d="M235.605 199.041C235.605 173.398 214.676 156.304 193.405 156.304C170.383 156.304 151.194 174.469 151.194 199.041C151.194 223.258 170.383 242.129 193.405 242.129C215.73 242.129 235.605 224.319 235.605 199.041ZM282.692 116.419V282.373H236.997V261.721C225.491 278.099 202.817 285.577 184.683 285.577C142.826 285.577 104.808 252.455 104.808 199.041C104.808 145.617 142.826 112.5 184.683 112.5C203.518 112.5 225.491 119.623 236.997 136.356V116.419H282.692Z" fill="#3B5BDB"/>
<path fill-rule="evenodd" clip-rule="evenodd" d="M484.611 280.769H439.034V195.787C439.034 169.8 423.728 158.216 408.069 158.216C391.711 158.216 371.534 166.992 371.534 196.843V280.769H325.962V50H371.534V142.763C378.493 122.048 404.592 112.912 420.246 112.912C462.693 112.912 484.959 141.706 484.611 190.871V280.769Z" fill="#3B5BDB"/>
<path fill-rule="evenodd" clip-rule="evenodd" d="M640.261 184.29C638.851 164.739 622.608 153.016 601.772 153.016C583.042 153.016 566.446 161.902 561.502 184.29H640.261ZM671.501 257.011C655.416 275.565 628.237 285.577 601.057 285.577C550.555 285.577 513.462 250.746 513.462 199.57C513.462 145.908 553.732 112.5 601.057 112.5C648.035 112.5 686.538 145.908 686.538 196.728C686.538 201.349 686.181 207.033 685.823 214.496H561.502C566.446 233.692 581.989 244.352 604.234 244.352C617.096 244.352 629.953 240.302 639.694 233.024L671.501 257.011Z" fill="#3B5BDB"/>
<path fill-rule="evenodd" clip-rule="evenodd" d="M841.37 199.041C841.37 173.398 820.447 156.304 799.171 156.304C776.15 156.304 756.967 174.469 756.967 199.041C756.967 223.258 776.15 242.129 799.171 242.129C821.496 242.129 841.37 224.319 841.37 199.041ZM888.462 116.419V282.373H842.762V261.721C831.257 278.099 808.583 285.577 790.45 285.577C748.594 285.577 710.577 252.455 710.577 199.041C710.577 145.617 748.594 112.5 790.45 112.5C809.29 112.5 831.257 119.623 842.762 136.356V116.419H888.462Z" fill="#3B5BDB"/>
<path fill-rule="evenodd" clip-rule="evenodd" d="M1052.91 199.648C1052.91 174.184 1031.99 157.21 1010.71 157.21C987.688 157.21 968.506 175.248 968.506 199.648C968.506 223.695 987.688 242.433 1010.71 242.433C1033.03 242.433 1052.91 224.748 1052.91 199.648ZM1100 50V282.396H1054.3V261.888C1042.8 278.151 1020.12 285.577 1001.99 285.577C960.133 285.577 922.115 252.687 922.115 199.648C922.115 146.598 960.133 113.713 1001.99 113.713C1020.83 113.713 1042.8 120.786 1054.3 137.402V50H1100Z" fill="#3B5BDB"/>
<path fill-rule="evenodd" clip-rule="evenodd" d="M100 357.692H301.923V324.039H100V357.692Z" fill="#3B5BDB"/>
</g>
<defs>
<clipPath id="clip0_42_93">
<rect width="1000" height="308" fill="white" transform="translate(100 50)"/>
</clipPath>
</defs>
</svg>
