<?xml version="1.0" encoding="UTF-8"?>
<svg id="Ebene_1" data-name="Ebene 1" xmlns="http://www.w3.org/2000/svg" viewBox="0 0 245.18 71.09">
  <defs>
    <style>
      .cls-1 {
        fill: #FFFFFF;
      }

      .cls-1, .cls-2 {
        stroke-width: 0px;
      }

      .cls-2 {
        fill: #FFFFFF;
      }
    </style>
  </defs>
  <path class="cls-2" d="M94.87,61.3h.05c.59-1.56,1.43-2.05,3.59-2.05,2.85,0,3.98,1.11,3.98,3.86v7.84h-2.79v-7.1c0-1.06-.02-1.29-.25-1.63-.3-.52-.82-.72-1.78-.72-2.1,0-2.79.74-2.79,2.89v6.55h-2.8v-16.5h2.8v6.85h0Z"/>
  <path class="cls-2" d="M114.93,60.21c.87.82,1.19,2.05,1.19,4.67,0,5.15-.94,6.21-5.44,6.21-2.72,0-4.03-.42-4.72-1.56-.57-.91-.74-1.98-.74-4.8,0-2.52.35-3.76,1.24-4.55.82-.72,1.85-.94,4.3-.94s3.41.25,4.18.97h0ZM108.05,65.06c0,3.39.32,3.86,2.57,3.86s2.65-.49,2.65-3.98c0-3.04-.35-3.51-2.62-3.51s-2.6.47-2.6,3.64h0Z"/>
  <polygon class="cls-2" points="121.8 70.94 119 70.94 119 54.44 121.8 54.44 121.8 70.94 121.8 70.94"/>
  <polygon class="cls-2" points="133.69 59.39 133.69 61.74 127.51 68.84 133.69 68.84 133.69 70.94 124.22 70.94 124.22 68.52 130.36 61.47 124.72 61.47 124.72 59.39 133.69 59.39 133.69 59.39"/>
  <path class="cls-2" d="M143.41,62.56c-.12-1.26-.32-1.39-2.27-1.39s-2.35.2-2.35,1.39c0,.72.2,1.09.64,1.24.27.07.4.1,2.32.17,2.52.12,3.14.25,3.76.72.69.52,1.04,1.43,1.04,2.7s-.37,2.2-1.06,2.79c-.82.67-1.98.92-4.38.92-3.19,0-4.5-.52-4.95-2-.17-.52-.2-.74-.2-1.78h2.87v.35c0,1.21.42,1.48,2.42,1.48s2.52-.3,2.52-1.53c0-1.11-.35-1.41-1.66-1.44-5.07-.05-6.09-.62-6.09-3.49,0-2.72,1.09-3.44,5.19-3.44,3.86,0,4.9.69,4.9,3.32h-2.72Z"/>
  <path class="cls-2" d="M156.94,61.49h-4.4v5.79c0,1.34.22,1.66,1.19,1.66,1.09,0,1.36-.4,1.36-1.98,0-.1,0-.22-.02-.47h2.35v.67c0,1.61-.15,2.2-.62,2.85-.59.77-1.56,1.09-3.34,1.09-1.93,0-2.89-.42-3.41-1.43-.25-.47-.3-.87-.3-1.98v-6.18h-1.51v-2.1h1.51v-2.57h2.79v2.57h4.4v2.1h0Z"/>
  <path class="cls-2" d="M170.29,67.26c0,2.94-1.16,3.83-4.97,3.83-4.62,0-5.66-1.09-5.66-5.98,0-2.52.27-3.76,1.01-4.6.82-.89,2.1-1.26,4.43-1.26,3.02,0,4.3.67,4.9,2.5.25.82.3,1.38.3,3.93h-7.82v.45c0,2.35.5,2.89,2.62,2.89s2.4-.27,2.43-1.76h2.77ZM167.55,63.5c-.05-1.83-.42-2.18-2.5-2.18-1.51,0-2.05.2-2.35.92-.15.37-.17.69-.2,1.71h5.05v-.45h0Z"/>
  <path class="cls-2" d="M175.86,56.82h-2.8v-2.38h2.8v2.38h0ZM175.86,70.94h-2.8v-11.55h2.8v11.55h0Z"/>
  <path class="cls-2" d="M181.72,59.39l-.1,1.95h.05c.54-1.46,1.66-2.1,3.59-2.1s3.09.52,3.66,1.51c.3.54.4,1.06.4,2.33v7.87h-2.8v-6.95c0-2.08-.35-2.5-2.05-2.5-1.88,0-2.72.79-2.72,2.6v6.85h-2.85v-11.55h2.82Z"/>
  <path class="cls-2" d="M202.84,67.26c0,2.94-1.16,3.83-4.97,3.83-4.63,0-5.66-1.09-5.66-5.98,0-2.52.27-3.76,1.01-4.6.82-.89,2.1-1.26,4.43-1.26,3.02,0,4.3.67,4.9,2.5.25.82.3,1.38.3,3.93h-7.82v.45c0,2.35.49,2.89,2.62,2.89s2.4-.27,2.42-1.76h2.77ZM200.09,63.5c-.05-1.83-.42-2.18-2.5-2.18-1.51,0-2.05.2-2.35.92-.15.37-.17.69-.2,1.71h5.05v-.45h0Z"/>
  <path class="cls-2" d="M208.4,59.39l-.17,1.61.05.02c.74-1.33,1.56-1.81,3.14-1.81,1.01,0,1.86.32,2.33.87.54.62.72,1.36.72,2.94v.84h-2.62c.02-.27.02-.35.02-.64,0-1.41-.32-1.81-1.43-1.81-.89,0-1.53.37-1.83,1.04-.15.37-.2.74-.2,1.68v6.8h-2.79v-11.55h2.79Z"/>
  <polygon class="cls-2" points="218.29 70.94 215.55 70.94 215.55 67.92 218.29 67.92 218.29 70.94 218.29 70.94"/>
  <path class="cls-2" d="M232.14,66.54v.4c0,1.29-.17,2.13-.57,2.72-.69,1.09-1.78,1.43-4.4,1.43-2.25,0-3.41-.27-4.25-.99-.96-.84-1.31-2.1-1.31-4.95,0-2.4.22-3.56.89-4.45.74-1.01,2.1-1.46,4.35-1.46,4.01,0,5.12.92,5.12,4.23h-2.72c0-1.66-.42-2.03-2.25-2.03-2.25,0-2.55.42-2.55,3.78,0,1.88.17,2.82.62,3.26.3.3.92.42,2,.42,2,0,2.3-.32,2.3-2.37h2.77Z"/>
  <path class="cls-2" d="M237.56,61.3h.05c.59-1.56,1.43-2.05,3.59-2.05,2.85,0,3.98,1.11,3.98,3.86v7.84h-2.8v-7.1c0-1.06-.02-1.29-.25-1.63-.3-.52-.82-.72-1.78-.72-2.1,0-2.8.74-2.8,2.89v6.55h-2.79v-16.5h2.79v6.85h0Z"/>
  <polygon class="cls-2" points="97.35 7.52 105.34 7.52 105.34 10.97 97.35 10.97 97.35 14.63 106.07 14.63 106.07 18.76 92.31 18.76 92.31 0 105.9 0 105.9 4.14 97.35 4.14 97.35 7.52 97.35 7.52"/>
  <path class="cls-2" d="M121.7,18.76h-4.13l.14-2.48h-.06c-.65,1.97-1.6,2.62-3.88,2.62-1.74,0-2.98-.37-3.8-1.15-.96-.93-1.21-2.05-1.21-5.48s.17-4.3,1.01-5.34c.76-.98,2.03-1.43,3.94-1.43,2.02,0,3.01.59,3.63,2.19h.08V0h4.27v18.76h0ZM113.01,12.18c0,3.01.31,3.51,2.14,3.51s2.28-.53,2.28-2.81c0-2.08-.03-2.62-.2-3.09-.22-.73-.81-1.01-2.08-1.01-1.91,0-2.14.37-2.14,3.4h0Z"/>
  <path class="cls-2" d="M137.55,18.76h-4.27l.23-2.7h-.08c-.62,1.97-1.83,2.84-4.08,2.84-1.88,0-3.23-.65-3.88-1.88-.34-.62-.48-1.32-.48-2.5V5.63h4.27v7.51q.03,1.41.17,1.69c.25.48.79.73,1.6.73.93,0,1.66-.36,2-1.01.23-.39.25-.62.25-2.05v-6.86h4.27v13.13h0Z"/>
  <path class="cls-2" d="M140.92,9.54c.03-1.57.17-2.14.65-2.76.82-.96,2.08-1.29,5.15-1.29,3.68,0,5.29.56,6.02,2.11.25.48.45,1.74.45,2.64v8.52h-4.27l.14-2.14h-.11c-.59,1.74-1.49,2.28-3.97,2.28-3.38,0-4.58-1.1-4.58-4.16,0-2.84,1.38-3.99,4.7-3.99,2.5,0,3.24.31,3.74,1.63h.08v-2.56c0-1.27-.53-1.72-2-1.72-1.27,0-1.6.28-1.69,1.43h-4.3ZM144.69,14.69c0,1.18.42,1.43,2.31,1.43,1.49,0,1.88-.34,1.88-1.52,0-.99-.48-1.27-2.19-1.27-1.49,0-2,.34-2,1.35h0Z"/>
  <path class="cls-2" d="M160.63,5.63l-.2,2.11h.08c.76-1.66,1.6-2.25,3.32-2.25s2.76.7,3.15,2.19c.2.67.2.73.25,3.68h-3.91c.03-.2.03-.39.03-.45,0-1.74-.23-2.16-1.15-2.16-.7,0-1.21.36-1.46,1.04-.11.34-.11.48-.11,1.38v7.59h-4.27V5.63h4.27Z"/>
  <path class="cls-2" d="M182.31,18.76h-4.13l.14-2.48h-.06c-.65,1.97-1.6,2.62-3.88,2.62-1.74,0-2.98-.37-3.8-1.15-.96-.93-1.21-2.05-1.21-5.48s.17-4.3,1.01-5.34c.76-.98,2.02-1.43,3.94-1.43,2.02,0,3.01.59,3.63,2.19h.08V0h4.27v18.76h0ZM173.62,12.18c0,3.01.31,3.51,2.14,3.51s2.28-.53,2.28-2.81c0-2.08-.03-2.62-.2-3.09-.23-.73-.82-1.01-2.08-1.01-1.91,0-2.14.37-2.14,3.4h0Z"/>
  <path class="cls-2" d="M102.47,32.95v-.34c0-1.49-.51-1.83-2.64-1.83-2.45,0-3.04.34-3.04,1.83,0,.62.14,1.07.42,1.29.31.28.48.31,2.08.42,4.56.34,4.61.34,5.79.7,2.05.65,2.73,1.88,2.73,4.89,0,2.53-.37,3.82-1.32,4.67-1.24,1.07-2.76,1.41-6.47,1.41-4.78,0-6.58-.48-7.54-2-.59-.93-.76-1.94-.76-4.22h4.78v.36c0,.79.17,1.27.56,1.55.42.34.65.37,2.95.37,1.63,0,1.88-.03,2.31-.39.37-.31.54-.73.54-1.49,0-1.32-.39-1.63-2.36-1.74-3.07-.17-4.61-.34-5.57-.56-2.33-.59-3.18-1.97-3.18-5.32,0-2.28.48-3.68,1.55-4.44,1.24-.87,2.81-1.15,6.47-1.15,3.94,0,5.54.39,6.5,1.6.7.84,1.01,1.97,1.01,3.54l-.03.84h-4.78Z"/>
  <path class="cls-2" d="M120.57,35.82h-4.98v5.31c0,1.41.17,1.74.96,1.74.99,0,1.18-.39,1.18-2.42h3.43l-.03.53c0,2-.06,2.36-.31,3.01-.62,1.49-1.83,2-4.95,2-2.25,0-3.4-.45-4.11-1.57-.34-.56-.45-1.12-.45-2.45v-6.16h-1.6v-3.09h1.6v-2.76h4.27v2.76h4.98v3.09h0Z"/>
  <path class="cls-2" d="M135.64,41.47v.25c0,1.12-.25,2.08-.76,2.76-.79,1.1-2.19,1.52-4.95,1.52-3.07,0-4.61-.39-5.65-1.38-.96-.96-1.27-2.36-1.27-5.65,0-2.84.37-4.22,1.38-5.12.98-.9,2.45-1.27,5.03-1.27,4.81,0,6.22,1.41,6.22,6.21v1.24h-8.41c-.03.23-.03.45-.03.53,0,1.88.51,2.45,2.25,2.45,1.55,0,2-.34,2-1.55h4.19ZM131.54,37.67c-.03-.2-.03-.36-.03-.42,0-.68-.06-.84-.23-1.1-.31-.42-.73-.53-2-.53-1.18,0-1.6.17-1.85.73-.11.28-.14.34-.17,1.32h4.27Z"/>
  <path class="cls-2" d="M142.73,30.28h-4.27v-3.18h4.27v3.18h0ZM142.73,45.86h-4.27v-13.13h4.27v13.13h0Z"/>
  <path class="cls-2" d="M150.23,32.72l-.17,2.56h.09c.67-2.02,1.63-2.7,3.82-2.7,3.12,0,4.53,1.24,4.53,3.99v9.28h-4.27v-7.51c0-1.97-.31-2.42-1.66-2.42-1.55,0-2.33.76-2.33,2.22v7.71h-4.27v-13.13h4.27Z"/>
  <path class="cls-2" d="M174.16,41.47v.25c0,1.12-.25,2.08-.76,2.76-.79,1.1-2.19,1.52-4.95,1.52-3.07,0-4.61-.39-5.65-1.38-.96-.96-1.27-2.36-1.27-5.65,0-2.84.37-4.22,1.38-5.12.98-.9,2.45-1.27,5.03-1.27,4.81,0,6.22,1.41,6.22,6.21v1.24h-8.41c-.03.23-.03.45-.03.53,0,1.88.51,2.45,2.25,2.45,1.55,0,2-.34,2-1.55h4.19ZM170.06,37.67c-.03-.2-.03-.36-.03-.42,0-.68-.06-.84-.23-1.1-.31-.42-.73-.53-2-.53-1.18,0-1.6.17-1.86.73-.11.28-.14.34-.17,1.32h4.28Z"/>
  <path class="cls-2" d="M181.5,32.72l-.2,2.11h.09c.76-1.66,1.6-2.25,3.32-2.25s2.76.7,3.15,2.19c.2.67.2.73.25,3.68h-3.91c.03-.2.03-.39.03-.45,0-1.74-.22-2.17-1.15-2.17-.7,0-1.21.37-1.46,1.04-.11.34-.11.48-.11,1.38v7.59h-4.27v-13.13h4.27Z"/>
  <path class="cls-2" d="M198.87,42.62l-.9,3.23h-5.23l5.62-18.76h7.62l5.71,18.76h-5.12l-.98-3.23h-6.72ZM202.25,30.84l-2.31,8.16h4.67l-2.36-8.16h0Z"/>
  <path class="cls-2" d="M229.27,35.25c.03,1.6.06,3.04.06,4.02,0,2.76-.34,3.99-1.35,5.09-1.21,1.27-2.81,1.63-7.43,1.63-2.7,0-3.85-.14-4.95-.62-2.5-1.07-3.49-3.12-3.49-7.2,0-1.55.06-4.3.11-5.23.14-2.14.98-3.77,2.42-4.72,1.52-1.01,2.87-1.27,6.86-1.27,3.29,0,4.44.17,5.71.9,1.38.76,1.97,2.25,2.05,5.09h-5.09c-.2-1.49-.7-1.8-3.07-1.8-2.08,0-3.01.34-3.46,1.24-.31.59-.39,1.35-.39,3.88s.11,3.71.34,4.33c.34.84,1.24,1.21,3.07,1.21s2.81-.25,3.23-.87c.31-.48.37-.79.39-2.22h-3.49v-3.46h8.46Z"/>
  <path class="cls-1" d="M79.58,70.95v-13.07H0v13.07h79.58ZM0,51.66h79.58v-13.07H0v13.07h0ZM0,32.36h79.58v-13.07H0v13.07h0ZM0,13.07h79.58V0H0v13.07h0Z"/>
</svg>