<svg xmlns="http://www.w3.org/2000/svg" viewBox="0 140 600 170">
  <style>
    .st0{fill:#FFFFFF;}
    .st1{fill:#E4072F;}
    .st2{fill:#FDEB19;}
  </style>

  <path class="st0" d="M96.7,156.9H69.2v69.6c0,7.5,6.1,13.6,13.6,13.6h107.4v-20.8H96.7V156.9z"/>
  <path class="st1" d="M69.2,281.7c0.7,6.8,6.5,12.1,13.5,12.1h277.9v-12.1H69.2z"/>
  <path class="st2" d="M531.1,281.7c-0.7,6.8-6.5,12.1-13.5,12.1H360.6v-12.1H531.1z"/>
  <path class="st0" d="M503.5,156.9v69.6c0,7.5,6.1,13.6,13.6,13.6H531v-83.2H503.5z"/>
  <path class="st0" d="M212.2,156.9v69.6c0,7.5,6.1,13.6,13.6,13.6h107.4v-20.8h-93.5v-12.1h93.5v-17.3h-93.5v-12.1h93.5v-20.8H212.2z"/>
  <polygon class="st0" points="441,156.9 388.1,193.3 388.1,156.9 360.6,156.9 360.6,241.8 400.4,214.4 437.7,240.1 484,240.1 423.5,198.5 484,156.9"/>
</svg>
