<?xml version="1.0" encoding="utf-8"?>
<!-- Generator: Adobe Illustrator 19.0.0, SVG Export Plug-In . SVG Version: 6.00 Build 0)  -->
<svg version="1.1" id="layer" xmlns="http://www.w3.org/2000/svg" xmlns:xlink="http://www.w3.org/1999/xlink" x="0px" y="0px"
	 viewBox="-153 -46 652 652" style="enable-background:new -153 -46 652 652;" xml:space="preserve">
<style type="text/css">
	.st0{fill:#FFFFFF;}
	.st1{fill:#FFFFFF;}
</style>
<g>
	<path class="st0" d="M11.9,268.6l-8.1-1.1c-2-0.2-3.6-0.9-4.8-2c-1.3-1.3-1.4-2.7-1.4-3.3c0-3.2,2.6-6.5,8.4-6.5h0.5
		c2.9,0,7.8,0,11.9,3.6l0.3,0.3l0.3-0.3c0.3-0.3,9.1-9.1,9.4-9.4l0.3-0.3l-0.3-0.3c-5.4-5.2-12.2-7.5-21.9-7.5
		c-14.5,0-24.3,8.4-24.3,20.9c0,5.7,1.5,10.2,4.5,13.3c2.9,3,7.4,5,13.3,5.8l8.1,1.1c2.1,0.3,3.6,0.9,4.6,1.8c0.9,1,1.4,2.4,1.4,4.2
		c0,5.2-5.4,6.3-9.9,6.3c-2.9,0-10.2-0.4-14.7-4.4l-0.3-0.3l-0.3,0.3c-0.2,0.2-9.3,9.3-9.6,9.6l-0.3,0.3l0.3,0.3
		c5.9,5.9,13.3,8.3,24.8,8.3c12.8,0,25.7-6.5,25.7-20.9c0-6.6-1.6-11.3-4.9-14.5C22.2,271.2,17.8,269.4,11.9,268.6"/>
	<path class="st0" d="M260.7,241.7c-7.7,0-13.4,2.3-18.6,7.5c-6.7,6.7-6.7,15.7-6.7,25.3v2.3c0,9.5,0,18.5,6.7,25.2
		c5.2,5.2,10.9,7.5,18.6,7.5c7.7,0,13.4-2.3,18.6-7.5c6.7-6.7,6.7-15.7,6.7-25.2v-2.4c0-9.5,0-18.5-6.7-25.2
		C274.1,244,268.4,241.7,260.7,241.7 M267.5,292.1c-1.1,1.5-3.5,3.1-6.8,3.1c-3.2,0-5.6-1.6-6.8-3.1c-1.6-2-2.5-4.2-2.5-16.6
		c0-12.4,1-14.7,2.5-16.7c1.4-1.9,4-3,6.8-3c2.8,0,5.4,1.1,6.8,3c1.5,2,2.5,4.3,2.5,16.7C270,287.9,269.1,290.1,267.5,292.1"/>
	<path class="st0" d="M319.7,294.6c-2.8,0-5.3-1.1-6.8-3c-1.5-2-2.5-4.2-2.5-16.6c0,0,0-31,0-32.2v-0.4h-16v34.9
		c0,8.2,0,17.5,6.7,24.2c5.1,5.2,10.9,7.5,18.5,7.5h18.9v-14.3H319.7z"/>
	<path class="st0" d="M-93.2,281l0.2-0.1c2.5-1.3,10.8-6.3,10.8-17.3c0-10.6-7.8-21.3-22.6-21.3h-26.3v66.6h16V284h2.3
		c3.4,0,4.5,1.7,5.6,3.9c2.2,4.6,5.7,12,7.9,16.6c1.1,2.4,1.9,4,2,4.1l0.1,0.3h18.5l-0.3-0.6C-79.3,307.9-91.5,284.4-93.2,281
		 M-105.6,270.6h-9.6v-14.1h9.6c4.8,0,7.4,3.6,7.4,7C-98.2,267-100.8,270.6-105.6,270.6"/>
	<path class="st0" d="M-50.1,241.7c-7.7,0-13.4,2.3-18.6,7.5c-6.7,6.7-6.7,15.7-6.7,25.3v2.2c0,9.5-0.1,18.5,6.7,25.3
		c5.2,5.2,10.9,7.5,18.6,7.5c7.7,0,13.4-2.3,18.6-7.5c6.7-6.7,6.7-15.7,6.7-25.3v-2.3c0-9.5,0-18.5-6.7-25.2
		C-36.7,244-42.4,241.7-50.1,241.7 M-56.9,258.9c1.4-1.9,4-3,6.8-3c2.8,0,5.4,1.1,6.8,3c1.5,2,2.5,4.2,2.5,16.7
		c0,12.4-0.9,14.5-2.5,16.6c-1.1,1.5-3.5,3.1-6.8,3.1c-3.3,0-5.7-1.6-6.8-3.1c-1.6-2-2.5-4.2-2.5-16.6
		C-59.4,263.1-58.4,260.9-56.9,258.9"/>
	<path class="st0" d="M142.1,284h9.9v1.2c0,3-0.9,5.6-2.6,7.4c-1.7,1.8-4.2,2.7-7.5,2.7c-2.8,0-5.3-1.1-6.7-2.9
		c-1.5-2-2.5-4.2-2.5-16.7c0-12.4,1-14.7,2.5-16.7c1.5-1.9,4-3,6.7-3c5.4,0,8.2,2.1,9.7,7.2l0.1,0.3h16.1l-0.1-0.5
		c-0.9-5-5.3-21.2-25.8-21.2c-7.6,0-13.3,2.3-18.5,7.5c-6.7,6.7-6.7,15.7-6.7,25.3v2.2c0,9.5,0,18.5,6.7,25.3c5,5,11,7.5,18.5,7.5
		c8.5,0,14.2-2.2,19.3-7.5c4.9-5,6.7-11,6.7-22.1v-9.1h-25.8V284z"/>
	<path class="st0" d="M65.8,268.6l-8.1-1.1c-2.1-0.2-3.7-0.9-4.8-2c-1.3-1.3-1.4-2.7-1.4-3.3c0-3.2,2.6-6.5,8.4-6.5h0.5
		c2.9,0,7.8,0,11.9,3.6l0.3,0.3l0.3-0.3c0.3-0.3,9.2-9.2,9.4-9.4l0.3-0.3l-0.3-0.3c-5.4-5.2-12.2-7.5-21.9-7.5
		c-14.5,0-24.3,8.4-24.3,20.9c0,5.7,1.5,10.2,4.6,13.3c2.9,3,7.4,5,13.3,5.8l8.1,1.1c2.1,0.3,3.6,0.9,4.6,1.8c0.9,1,1.4,2.4,1.4,4.2
		c0,5.2-5.4,6.3-9.9,6.3c-2.9,0-10.2-0.4-14.6-4.4l-0.3-0.3l-0.3,0.3c-0.3,0.3-9.3,9.3-9.6,9.6l-0.3,0.3l0.3,0.3
		c5.9,5.9,13.3,8.3,24.8,8.3c12.8,0,25.7-6.5,25.7-20.9c0-6.5-1.6-11.3-4.9-14.5C76.1,271.2,71.7,269.4,65.8,268.6"/>
	<path class="st0" d="M201.6,242.3h-25.3v66.6h16v-0.4c0-0.2,0-30.2,0-30.2v-21.7h9.3c2.8,0,5.4,1.1,6.8,3c1.4,1.8,2.3,3.9,2.5,14.1
		v35.2h16v-35c0-8.2,0-17.5-6.7-24.2C215.1,244.6,209.3,242.3,201.6,242.3"/>
	<rect x="92.3" y="242.3" class="st0" width="16" height="66.6"/>
	<path class="st0" d="M468.5,228.2l0-0.2l-0.2-0.1c-4.1-3.1-20.8-13.3-62.6-13.3c-40.7,0-56.1,10-59.9,13l-0.2,0.1l0,0.2
		c-0.6,5.1-1.1,24.5,20.2,62.4c20.7,36.9,36.5,45.3,40.8,46.9l0.2,0.1l0.2-0.1c4.7-2.1,21.5-11.8,42.4-49.2
		C470.2,251.2,469.3,232.9,468.5,228.2 M446.7,286.7c-6.5,11.5-12.5,20.3-17.8,27.1c-0.7,0.8-1.3,1.7-2,2.4c-0.7,0.8-1.3,1.6-2,2.3
		c-7.9,9.1-14,13.3-17.1,15l-0.6,0.3l-0.5,0.3l-1-0.6c-1.9-1-5-3-9-6.7c-7.7-6.9-15.5-16.9-23.3-29.6c-1.6-2.7-3.3-5.4-4.9-8.3
		c-9.7-17.4-14.8-30.8-17.4-40.5c-2.4-9-2.7-14.9-2.6-18.1l0-1.1l0.7-0.4l0.3-0.2c0.8-0.6,2-1.2,3.4-2c2.5-1.3,6.1-2.8,10.9-4.2
		c9-2.6,22.4-4.9,41.9-4.9c36.9,0,53.5,8,58.9,11.4l0.9,0.6l0.1,1.1C466,236.8,464.8,254.4,446.7,286.7"/>
	<path class="st1" d="M462.2,231.6c-5.7-3.4-21.8-10.5-56.5-10.5c-33.4,0-48.4,6.8-53.7,10.1c-0.1,6.8,1.9,24.7,19.5,56.1
		c9.2,16.5,18.5,28.9,27.5,37.1c3.3,3,5.9,4.8,7.7,5.8c5.8-3.5,19.7-14.3,36.9-45.1C460.7,254.7,462.4,238,462.2,231.6 M442,284.1
		c-16.4,29.4-29.9,40.3-35.3,43.8c-1.5-0.9-3.7-2.5-6.4-5c-8.8-8-17.9-20.3-27.1-36.6c-16.8-30-19.1-47.5-19.3-54.1
		c0.5-0.3,1.1-0.6,1.7-0.9c0.7-0.4,1.5-0.7,2.5-1.1c1.1-0.5,2.3-0.9,3.7-1.4c8.2-2.8,22-5.8,43.8-5.8c24.6,0,39.7,3.7,48.1,6.8
		c2.9,1.1,5,2.1,6.4,2.9C460.2,238.8,458.2,255.2,442,284.1"/>
	<path class="st0" d="M402,246.2v23.4c-8.3-1-15.1-6.5-15.1-13c0-5.4,4.3-10,10.5-12c-0.1-0.1-3.1-1.8-7.9,0.8c0,0,3.2-2.9,1.7-7.3
		c-1.2,3.2-4.3,5-4.3,5c0.9-4.1-1.3-6.6-1.3-6.6c-0.3,4-7,7.9-9.9,10.8c-1.6,1.6-2.5,4.1-2.5,7l0,0.8l0,2.5c-6,1.8-4.6,7.9-4.6,7.9
		s1.9-1.9,5.9-1.9c13.2,0,6.9,25.4,27.5,31.5v10.4c0,1.6,1.3,3.1,3,3h0.3v-65.6C403.5,242.9,402,244.4,402,246.2"/>
	<path class="st1" d="M411.4,246.2c0-1.8-1.5-3.3-3.3-3.3v65.5h0.3c1.6,0,2.9-1.4,2.9-3V295c6.8-2.2,10.3-7.3,12.6-15.6
		c0.3-0.9,0.6-1.9,1.2-2.6c0.6-0.8,1.5-1.3,2.6-1.3c1.8,0,3.2,1.4,3.2,3.2c0.7-1.3,1.1-2.6,1.3-4.1c0.2-1.4,0.1-2.8-0.2-4.1
		c2.9,0,4.2,4.8,4.2,4.8c0.7-1.3,1.1-2.6,1.3-4.2c0.2-1.9,0-3.7-0.7-5.5c2.8,0,3.8,4.7,3.8,4.7c0.7-1.3,1-2.6,1.2-4.1
		c0.2-1.6,0.1-3.3-0.3-4.8c2.3,0,3.6,3.9,3.6,3.9c0.5-1.3,0.8-2.8,0.7-4.3c0-7-5.8-12.6-13-12.6c-4,0-7.6,1.7-9.9,4.5
		c-1.5,1.7-2.9,4-4.2,7c-2,4.5-4,7.7-7.4,9.4V246.2z"/>
</g>
</svg>
