<?xml version="1.0" encoding="UTF-8"?>
<svg id="Layer_2" data-name="Layer 2" xmlns="http://www.w3.org/2000/svg" viewBox="0 0 1679.52 500">
  <defs>
    <style>
      .cls-1 {
        fill: #4d4d4d;
        stroke: #000;
        stroke-miterlimit: 10;
      }

      .cls-2 {
        fill: #c10406;
        stroke-width: 0px;
      }
    </style>
  </defs>
  <path class="cls-2" d="M1414.54,74.19c10.94-21.91,26.79-39.04,46.6-52.47,20.93-14.19,43.73-22.46,69.5-21.66,31.66.98,52.57,24.1,49.77,55.63-.42,4.76-3.33,7.88-7.61,8.14-4.46.27-7.77-2.67-8.63-7.54-.61-3.45-1.08-6.95-2.1-10.29-5.73-18.7-22.96-27.86-41.76-22.33-18.63,5.48-33.53,24.48-35.78,45.23-1.26,11.64,1.37,22.13,7.24,32.26,46.43,80.13,92.69,160.36,139,240.56,1.31,2.28,2.55,4.6,3.96,6.82,3.21,5.05,8.2,5.81,12.53,1.67,5.92-5.65,11.6-11.55,17.43-17.3,4.48-4.42,9.09-4.79,12.66-1.11,3.36,3.47,2.82,8.54-1.38,12.75-37.83,37.84-75.65,75.7-113.54,113.48-1.59,1.58-3.68,3.06-5.79,3.64-3.65.98-6.6-.83-8.46-4.01-1.92-3.29-1.49-6.56,1.13-9.27,4.97-5.15,10.09-10.17,15.15-15.24,8.78-8.79,10.24-19.58,4.02-30.37-20.59-35.68-41.23-71.33-61.73-107.05-1.46-2.55-3.05-3.31-5.87-3.31-33.78.09-67.55.11-101.33-.02-3.08-.01-4.73,1.01-6.12,3.64-2.8,5.29-6,10.37-8.89,15.61-3.06,5.53-1.33,10.22,4.71,12.01,21.79,6.47,41.9,16.22,60.08,29.94,3.96,2.99,7.27,2.52,10.99-.94,1.28-1.19,2.45-2.55,3.87-3.55,3.25-2.29,7.12-1.87,10.03.89,2.8,2.65,3.4,6.7,1.32,9.99-.77,1.22-1.82,2.29-2.84,3.32-27.08,27.1-54.17,54.19-81.26,81.27-.93.93-1.88,1.87-2.97,2.58-3.36,2.19-7.12,1.72-10-1.13-2.82-2.78-3.28-6.67-1.14-10.01.47-.73,1.09-1.37,1.69-2,7.95-8.47,8.11-9.91.73-19.1-14.13-17.58-32.95-27.76-54.41-33.21-28.47-7.23-56.52-6.63-83.34,6.73-12.13,6.04-22.38,14.48-28.54,26.91-8.8,17.76-4.25,39.4,10.81,52.76,14.46,12.82,36.06,14.69,52.16,4.51,16.96-10.72,24.32-30.51,18.61-50.02-1.7-5.79.31-10.34,5.15-11.66,4.82-1.32,8.92,1.54,10.51,7.33,9.63,35.11-13.47,72.75-49.29,80.33-36.31,7.68-72.25-16.56-77.89-52.79-3.42-22,2.91-42.06,13.93-60.71,17.13-28.96,43.05-47.17,74.15-58.57,19.25-7.05,39.2-10.7,59.69-10.5,11.76.12,19.86-4.58,25.7-14.81,23.61-41.36,47.55-82.52,71.23-123.84,1.09-1.9,1.31-4.72.97-6.96-3.65-24.43-13.52-45.71-33.38-61.13-15.55-12.07-33.21-17.86-53-13.27-11.1,2.58-20.09,8.29-22.72,20.47-1.57,7.3,1.05,13.81,4.63,20.02,1.87,3.26,1.66,6.47-.61,9.43-2.22,2.9-5.39,3.74-8.63,2.54-1.91-.71-3.74-2.32-4.98-3.99-19.75-26.49-12.37-58.37,17.42-72.76,27.59-13.33,55.46-11.71,83.02.76,1.05.48,2.09.99,3.64,1.72ZM1450.16,197.88c-12.74,22.07-25.09,43.46-37.65,65.23h75.29c-12.58-21.79-24.87-43.09-37.65-65.23Z"/>
  <g>
    <path class="cls-1" d="M154.82,66.8l88.26,250h.99l53.05-250h69.41l-75.86,359h-74.37l-91.23-256h-.99l-54.04,256H.62L76.48,66.8h78.34Z"/>
    <path class="cls-1" d="M484.04,159.8l-56.03,266h-69.41l56.03-266h69.41ZM504.37,63.3l-13.88,65h-69.42l13.88-65h69.41Z"/>
    <path class="cls-1" d="M758.72,254.8h-70.9c0-28.5-9.92-43-35.7-43-56.03,0-78.34,66-78.34,117.5,0,32.5,14.88,46,40.66,46s49.09-20.5,57.02-46.5h70.41c-20.33,63-73.88,104-142.3,104-63.96,0-98.67-32-98.67-93.5,0-26.5,6.45-56,19.34-87.5,26.28-63.5,75.36-99,142.3-99,63.46,0,96.69,36,96.69,86.5,0,7.5,0,11-.5,15.5Z"/>
    <path class="cls-1" d="M1056.71,255.3c0,91.5-65.94,177.5-168.58,177.5-66.94,0-109.08-37-109.08-102,0-115.5,85.28-178,168.08-178,65.94,0,109.58,37,109.58,102.5ZM901.52,373.8c61.48,0,82.8-68.5,82.8-110,0-34-15.37-52-52.06-52-56.52,0-81.31,63-81.31,111.5,0,34.5,17.85,50.5,50.57,50.5Z"/>
    <path class="cls-1" d="M1220.33,66.8l-75.86,359h-69.41l75.86-359h69.41Z"/>
  </g>
</svg>